<svg xmlns="http://www.w3.org/2000/svg" viewBox="0 0 1440 320"><path fill="#f6d8cc" fill-opacity="1" d="M0,160L7.5,149.3C15,139,30,117,45,138.7C60,160,75,224,90,261.3C105,299,120,309,135,288C150,267,165,213,180,197.3C195,181,210,203,225,218.7C240,235,255,245,270,245.3C285,245,300,235,315,218.7C330,203,345,181,360,186.7C375,192,390,224,405,213.3C420,203,435,149,450,149.3C465,149,480,203,495,208C510,213,525,171,540,165.3C555,160,570,192,585,176C600,160,615,96,630,80C645,64,660,96,675,128C690,160,705,192,720,170.7C735,149,750,75,765,42.7C780,11,795,21,810,37.3C825,53,840,75,855,85.3C870,96,885,96,900,128C915,160,930,224,945,224C960,224,975,160,990,144C1005,128,1020,160,1035,176C1050,192,1065,192,1080,170.7C1095,149,1110,107,1125,106.7C1140,107,1155,149,1170,186.7C1185,224,1200,256,1215,250.7C1230,245,1245,203,1260,176C1275,149,1290,139,1305,117.3C1320,96,1335,64,1350,64C1365,64,1380,96,1395,122.7C1410,149,1425,171,1433,181.3L1440,192L1440,0L1432.5,0C1425,0,1410,0,1395,0C1380,0,1365,0,1350,0C1335,0,1320,0,1305,0C1290,0,1275,0,1260,0C1245,0,1230,0,1215,0C1200,0,1185,0,1170,0C1155,0,1140,0,1125,0C1110,0,1095,0,1080,0C1065,0,1050,0,1035,0C1020,0,1005,0,990,0C975,0,960,0,945,0C930,0,915,0,900,0C885,0,870,0,855,0C840,0,825,0,810,0C795,0,780,0,765,0C750,0,735,0,720,0C705,0,690,0,675,0C660,0,645,0,630,0C615,0,600,0,585,0C570,0,555,0,540,0C525,0,510,0,495,0C480,0,465,0,450,0C435,0,420,0,405,0C390,0,375,0,360,0C345,0,330,0,315,0C300,0,285,0,270,0C255,0,240,0,225,0C210,0,195,0,180,0C165,0,150,0,135,0C120,0,105,0,90,0C75,0,60,0,45,0C30,0,15,0,8,0L0,0Z"></path></svg>